<svg width="57" height="63" viewBox="0 0 57 63" fill="none" xmlns="http://www.w3.org/2000/svg">
<g clip-path="url(#clip0_2014_166)">
<path d="M10.0607 12.062C13.1416 5.20957 20.2052 0.427399 28.4335 0.427399C36.6618 0.427399 43.7253 5.20957 46.8062 12.062C48.8602 12.2315 50.4758 13.8901 50.4758 15.9241V23.6724C50.4758 25.7063 48.8602 27.365 46.8062 27.5344C43.7253 34.3869 36.6618 39.169 28.4335 39.169C20.2052 39.169 13.1416 34.3869 10.0607 27.5344C8.00676 27.365 6.39116 25.7063 6.39116 23.6724V15.9241C6.39116 13.8901 8.00676 12.2315 10.0607 12.062ZM14.4065 17.8611V19.7982C14.4065 26.2148 19.7919 31.4207 26.4296 31.4207H30.4373C37.075 31.4207 42.4604 26.2148 42.4604 19.7982V17.8611C42.4604 14.6528 39.7677 12.0499 36.4488 12.0499H20.4181C17.0992 12.0499 14.4065 14.6528 14.4065 17.8611ZM32.7793 20.1251L33.5307 17.5585C33.6435 17.1589 34.0192 16.8926 34.445 16.8926C34.8708 16.8926 35.2465 17.1589 35.3593 17.5585L36.1107 20.1251L38.7658 20.8515C39.1791 20.9605 39.4546 21.3237 39.4546 21.7353C39.4546 22.1469 39.1791 22.5101 38.7658 22.6191L36.1107 23.3455L35.3593 25.9121C35.2465 26.3117 34.8708 26.578 34.445 26.578C34.0192 26.578 33.6435 26.3117 33.5307 25.9121L32.7793 23.3455L30.1242 22.6191C29.7109 22.5101 29.4354 22.1469 29.4354 21.7353C29.4354 21.3237 29.7109 20.9605 30.1242 20.8515L32.7793 20.1251ZM42.3727 38.7453C50.6386 41.9052 56.4873 49.7019 56.4873 58.8183C56.4873 60.8038 54.8216 62.414 52.7677 62.414H40.4565V54.6657C40.4565 52.5228 38.6656 50.7915 36.4488 50.7915H20.4181C18.2013 50.7915 16.4104 52.5228 16.4104 54.6657V62.414H4.09925C2.04531 62.414 0.379616 60.8038 0.379616 58.8183C0.379616 49.7019 6.22834 41.9052 14.4942 38.7453C18.4268 41.4451 23.236 43.0432 28.4335 43.0432C33.6309 43.0432 38.4402 41.4451 42.3727 38.7453ZM34.445 54.6657C35.5471 54.6657 36.4488 55.5374 36.4488 56.6028V62.414H32.4412V56.6028C32.4412 55.5374 33.3429 54.6657 34.445 54.6657ZM22.4219 58.5399C21.8905 58.5399 21.3808 58.3358 21.005 57.9725C20.6292 57.6092 20.4181 57.1165 20.4181 56.6028C20.4181 56.089 20.6292 55.5963 21.005 55.2331C21.3808 54.8698 21.8905 54.6657 22.4219 54.6657C22.9534 54.6657 23.4631 54.8698 23.8389 55.2331C24.2147 55.5963 24.4258 56.089 24.4258 56.6028C24.4258 57.1165 24.2147 57.6092 23.8389 57.9725C23.4631 58.3358 22.9534 58.5399 22.4219 58.5399Z" fill="white"/>
</g>
<defs>
<clipPath id="clip0_2014_166">
<rect width="56.1077" height="61.9866" fill="white" transform="matrix(-1 0 0 1 56.4873 0.427399)"/>
</clipPath>
</defs>
</svg>
