<svg width="53" height="49" viewBox="0 0 53 49" fill="none" xmlns="http://www.w3.org/2000/svg">
<g clip-path="url(#clip0_2059_6)">
<path d="M1.21914 4.00197C0.944922 3.62697 0.802734 3.17697 0.802734 2.72697C0.802734 1.45197 1.91992 0.420715 3.30117 0.420715H14.402C15.5395 0.420715 16.6059 0.97384 17.1848 1.87384L24.1418 12.5707C19.2465 13.1426 14.8691 15.252 11.609 18.3738L1.21914 4.00197ZM52.3762 4.00197L41.9965 18.3738C38.7363 15.252 34.359 13.1426 29.4637 12.5707L36.4207 1.87384C37.0098 0.97384 38.066 0.420715 39.2035 0.420715H50.3043C51.6855 0.420715 52.8027 1.45197 52.8027 2.72697C52.8027 3.17697 52.6605 3.62697 52.3863 4.00197H52.3762ZM8.92773 31.9207C8.92773 27.5446 10.811 23.3478 14.1632 20.2535C17.5154 17.1591 22.062 15.4207 26.8027 15.4207C31.5435 15.4207 36.0901 17.1591 39.4423 20.2535C42.7945 23.3478 44.6777 27.5446 44.6777 31.9207C44.6777 36.2968 42.7945 40.4936 39.4423 43.588C36.0901 46.6823 31.5435 48.4207 26.8027 48.4207C22.062 48.4207 17.5154 46.6823 14.1632 43.588C10.811 40.4936 8.92773 36.2968 8.92773 31.9207ZM27.6559 23.0238C27.3105 22.3676 26.3051 22.3676 25.9496 23.0238L23.6746 27.2801C23.5324 27.5426 23.2684 27.7207 22.9637 27.7582L17.8652 28.4426C17.0832 28.5457 16.7785 29.427 17.3371 29.9426L21.0238 33.2613C21.2473 33.4676 21.3488 33.7488 21.298 34.0395L20.4246 38.7176C20.2926 39.4301 21.1051 39.9832 21.8059 39.6457L26.3559 37.4332C26.6301 37.302 26.9652 37.302 27.2395 37.4332L31.7895 39.6457C32.4902 39.9832 33.3027 39.4395 33.1707 38.7176L32.2973 34.0395C32.2465 33.7582 32.348 33.4676 32.5715 33.2613L36.2582 29.9426C36.827 29.4363 36.5121 28.5551 35.7301 28.4426L30.6418 27.7582C30.3371 27.7207 30.0629 27.5332 29.9309 27.2801L27.6559 23.0238Z" fill="white"/>
</g>
<defs>
<clipPath id="clip0_2059_6">
<rect width="52" height="48" fill="white" transform="translate(0.802734 0.420715)"/>
</clipPath>
</defs>
</svg>
